<?xml version="1.0" encoding="utf-8" ?>
<svg xmlns="http://www.w3.org/2000/svg" xmlns:xlink="http://www.w3.org/1999/xlink" width="1024" height="1024">
	<path fill="#456AF2" transform="scale(2 2)" d="M314.759 313.117L373.63 313.117L373.63 435.325L254.551 435.325L254.551 313.618C259.123 313.426 263.776 313.609 268.358 313.612L295.793 313.629C302.117 313.632 308.464 313.819 314.759 313.117Z"/>
	<path fill="#4E92F4" transform="scale(2 2)" d="M360.791 317.482L369.212 317.482C369.215 336.032 368.876 354.644 369.212 373.186L324.625 373.186L315.743 373.186L315.743 317.482L360.791 317.482Z"/>
	<path fill="#4E92F4" transform="scale(2 2)" d="M294.703 317.482L311.215 317.482C311.373 323.685 311.225 329.933 311.223 336.14L311.215 373.186L275.292 373.186L259.4 373.186C259.771 359.497 259.385 345.686 259.406 331.985C259.413 327.27 258.816 322.114 259.4 317.482L294.703 317.482Z"/>
	<path fill="#4E92F4" transform="scale(2 2)" d="M315.743 377.756L369.212 377.756C369.005 395.542 369.211 413.354 369.212 431.143L315.743 431.143L315.741 393.183C315.738 388.827 315.111 381.865 315.743 377.756Z"/>
	<path fill="#4E92F4" transform="scale(2 2)" d="M310.412 377.756L310.712 377.841C311.761 379.12 311.215 425.467 311.215 431.143L259.937 431.143C259.527 431.061 259.755 431.142 259.288 430.814L259.4 377.756L310.412 377.756Z"/>
	<path fill="#3FC4FC" transform="scale(2 2)" d="M200.251 194.339L257.826 194.339L257.826 253.281L296.054 253.29C302.218 253.292 308.619 253.649 314.759 253.281L314.759 313.117C308.464 313.819 302.117 313.632 295.793 313.629L268.358 313.612C263.776 313.609 259.123 313.426 254.551 313.618C251.932 314.319 245.318 313.598 242.184 313.603L197.209 313.618L197.209 256.271L138.784 256.271C139.205 250.352 138.794 243.426 138.792 237.407L138.784 198.02C138.843 196.799 138.793 195.562 138.784 194.339L198.087 194.339L200.251 194.339Z"/>
	<path fill="#FE65AA" transform="scale(2 2)" d="M142.612 198.02C146.789 197.461 152.444 198.061 156.802 198.051L192.838 198.02C194.282 197.977 195.773 197.847 197.209 198.02L197.209 252.516L197.209 256.271L138.784 256.271C139.205 250.352 138.794 243.426 138.792 237.407L138.784 198.02L142.612 198.02Z"/>
	<path fill="#FE46A0" transform="scale(2 2)" d="M138.784 198.02L142.612 198.02L142.612 252.516L181.147 252.461C185.638 252.469 193.115 253.228 197.209 252.516L197.209 256.271L138.784 256.271C139.205 250.352 138.794 243.426 138.792 237.407L138.784 198.02Z"/>
	<path fill="#4E92F4" transform="scale(2 2)" d="M138.784 194.339L198.087 194.339C193.414 194.776 189.17 194.273 184.544 194.304C176.213 194.359 161.29 193.659 154.533 194.889C164.391 196.749 186.439 194.481 192.838 198.02L156.802 198.051C152.444 198.061 146.789 197.461 142.612 198.02L138.784 198.02C138.843 196.799 138.793 195.562 138.784 194.339Z"/>
	<path fill="#4DEEBE" transform="scale(2 2)" d="M201.37 198.02C217.062 198.941 237.819 198.418 253.61 198.02L253.61 253.281L201.37 253.281C201.103 240.948 201.361 228.542 201.377 216.202C201.385 210.2 200.73 203.973 201.37 198.02Z"/>
	<path fill="#4DEEBE" transform="scale(2 2)" d="M257.826 257.753L310.412 257.753L310.412 309.698L257.826 309.698L257.826 257.753Z"/>
	<path fill="#4DEEBE" transform="scale(2 2)" d="M252.161 257.753C255.344 257.205 253.611 265.138 253.608 267.733L253.61 309.698L203.45 309.698C202.811 309.734 202.297 309.721 201.66 309.61C200.939 308.143 201.368 263.52 201.37 257.753L252.161 257.753Z"/>
	<path fill="#FE65AA" transform="scale(2 2)" d="M138.784 76.7453L200.251 76.7453L200.251 194.339L198.087 194.339L138.784 194.339C138.463 190.409 138.764 186.211 138.77 182.253L138.784 76.7453Z"/>
	<path fill="#FECE3F" transform="scale(2 2)" d="M138.784 313.618C149.493 313.737 160.217 313.625 170.927 313.618L170.927 401.502L228.951 401.502L228.951 435.325C225.758 435.727 222.497 435.384 219.287 435.352L138.784 435.325L138.784 313.618Z"/>
</svg>
